# xmcd
#
# Track frame offsets:
#	150
#	12840
#	27525
#	39060
#	58850
#	73275
#	89195
#	98923
#	111855
#	127808
#	150103
#	166005
#	184625
#	197020
#	220340
#	234315
#	254398
#	277150
#	294388
#	309778
#
# Disc length: 4432 seconds
#
# Revision: 5
# Processed by: cddbd v1.4PL0 Copyright (c) Steve Scherf et al.
# Submitted via: audiograbber 1.81.02
#
DISCID=11114e14
DTITLE=Jane Birkin - Jane Birkin Au Bataclan
DYEAR=1987
DGENRE=Live
TTITLE0=Jane
TTITLE1=Di Doo Dah
TTITLE2=Norma Jean Baker
TTITLE3=Love For Sale
TTITLE4=Ballade de Johnny Jane
TTITLE5=Ex fan des sixties
TTITLE6=Les dessous chics
TTITLE7=Physique et sans issue
TTITLE8=Baby Alone In Babylone
TTITLE9=Avec le temps
TTITLE10=Le Moi et le Je
TTITLE11=Nicotine
TTITLE12=L'amour de moi
TTITLE13=Quoi
TTITLE14=Yesterday Yes A Day
TTITLE15=Lost Song
TTITLE16=Baby Lou
TTITLE17=Rocking Chair
TTITLE18=Fuir le bonheur de peur qu'il ne se sauve
TTITLE19=Le couteau dans le Play
EXTD=
EXTT0=
EXTT1=
EXTT2=
EXTT3=
EXTT4=
EXTT5=
EXTT6=
EXTT7=
EXTT8=
EXTT9=
EXTT10=
EXTT11=
EXTT12=
EXTT13=
EXTT14=
EXTT15=
EXTT16=
EXTT17=
EXTT18=
EXTT19=
PLAYORDER=
